<svg id="Défaut" xmlns="http://www.w3.org/2000/svg" viewBox="0 0 460.3 152.14"><defs><style>.cls-1{fill:#dbdbdb;}.cls-2{fill:#e02427;}.cls-3{fill:#7fd311;}</style></defs><title>Plan de travail 2</title><path class="cls-1" d="M151.12.45H29.43L0,73.17H122.76a17,17,0,0,0,15.76-10.61q10.24-25.2,20.47-50.4A8.5,8.5,0,0,0,151.12.45Zm-12,22.3q-5.49,13.44-11,26.87a8.51,8.51,0,0,1-7.87,5.29H22.79l15.39-38h97A4.25,4.25,0,0,1,139.14,22.75Z"/><path class="cls-1" d="M268.29,56.27H229.7L252.34.15,237,0q-11.32,28.14-22.64,56.27H177.09a4.25,4.25,0,0,1-3.94-5.84L193.48,0h-15.7L153,61.48a8.51,8.51,0,0,0,7.89,11.69H271.1a17,17,0,0,0,15.78-10.65Q299.48,31.26,312.1,0H296.71q-10.27,25.47-20.54,51A8.5,8.5,0,0,1,268.29,56.27Z"/><path class="cls-1" d="M426,46.66q-1.15,2.94-2.33,5.87a4.25,4.25,0,0,1-3.95,2.69H303.65q-3.61,9-7.24,18H419.34a17,17,0,0,0,15.79-10.7q4.64-11.59,9.28-23.2a8.5,8.5,0,0,0-7.9-11.66H333.08a2.13,2.13,0,0,1-1.95-3l2.13-4.88a4.23,4.23,0,0,1,3.89-2.55H453.36L460.3,0H337.63a17,17,0,0,0-15.71,10.49Q317.46,21.24,313,32a8.5,8.5,0,0,0,7.86,11.76H424A2.12,2.12,0,0,1,426,46.66Z"/><path class="cls-2" d="M2,121.21H15.21v4.06H1.94Z"/><path class="cls-1" d="M35.26,138.75V96.14H55q9.15,0,12.4,4t3.25,15.43q0,13.86-2.89,18.51t-11.54,4.65Zm4.81-4.06H54q7.65,0,9.87-3.06T66.06,118q0-11.61-1.92-14.7t-9.2-3.1H40.07Z"/><path class="cls-1" d="M98,108.91l-8.46,31.56q-1.78,6.67-4,9.18a7.76,7.76,0,0,1-6.19,2.49,13.53,13.53,0,0,1-2.1-.21V148.3a9.81,9.81,0,0,0,1.53.22c2.36.13,4.1-1.78,5.25-5.71l.84-2.93c0-.11.12-.49.29-1.13H83.58L72.77,108.91h4.65l4.6,13.3,2.31,6.61,1.12,3.34,1.16,3.31h.12l.82-3.31.78-3.34L90,122.21l3.38-13.3Z"/><path class="cls-1" d="M101.69,108.91h4.22l-.13,4,.13.1q2-4.59,9.93-4.59,6.41,0,8.67,2.25c1.51,1.49,2.26,4.37,2.26,8.61v19.42H122.4V118.58q0-3.84-1.47-5.16t-5.65-1.33q-9.21,0-9.21,8.71v18h-4.38Z"/><path class="cls-1" d="M139.23,117.27h-4.34q0-5.2,2.36-7t9.23-1.79q7.46,0,10.09,2.2c1.75,1.46,2.62,4.26,2.62,8.38v19.7h-4.37l.34-3.21-.09,0q-2.5,3.69-10.15,3.69-11.31,0-11.31-9.09,0-5.4,2.53-7.46t9.15-2.06q7.88,0,9.43,3.09l.1,0V120c0-3.41-.47-5.63-1.41-6.63s-3-1.52-6.15-1.52q-8.06,0-8.06,4.53C139.2,116.54,139.21,116.84,139.23,117.27Zm7,6.71q-5,0-6.54,1.07t-1.52,4.55c0,2.42.5,4,1.5,4.8s3,1.17,6.09,1.17q9.24,0,9.25-5.62,0-3.54-1.8-4.75C152,124.39,149.72,124,146.26,124Z"/><path class="cls-1" d="M243.17,96.14l-13.43,42.61h-7.31l-9-30.69-1.12-3.84c-.07-.2-.25-.84-.54-1.9l-.56-1.94h-.09l-.53,1.94-.56,1.93-1.16,3.88-9.12,30.62h-7.18L179.52,96.14h4.94l9.18,30.62,1.25,4.16c.1.33.31,1,.62,2.06l.6,2.09h.09l.59-2.09.6-2.06,1.21-4.13,9.06-30.65h7.12l9,30.68,1.22,4.1.57,2.09.59,2.06h.09l.63-2.09.62-2.1,1.29-4.18,9.36-30.56Z"/><path class="cls-1" d="M251.51,96.14V101h-4.37v-4.9Zm0,12.77v29.84h-4.37V108.91Z"/><path class="cls-1" d="M259.16,108.91h4.22l-.13,4,.13.1q2-4.59,9.93-4.59,6.4,0,8.67,2.25c1.51,1.49,2.26,4.37,2.26,8.61v19.42h-4.37V118.58q0-3.84-1.47-5.16t-5.65-1.33q-9.22,0-9.22,8.71v18h-4.37Z"/><path class="cls-1" d="M317.13,108.91v31.78q0,6.48-2.81,8.93T304,152.05q-6.69,0-9.12-2.06c-1.62-1.37-2.44-3.94-2.44-7.71h4.22c0,2.56.48,4.23,1.42,5s3,1.16,6.23,1.16,5.57-.5,6.71-1.5,1.72-3,1.72-5.87v-6l-.09,0q-1.7,4.14-9.74,4.15-6.63,0-9.12-3.26T291.3,124q0-9,2.54-12.25t9.45-3.29q7.35,0,9.59,4.49l.09,0-.22-4Zm-13,3.18q-5.14,0-6.68,2.17t-1.53,9.51q0,7.39,1.53,9.59t6.68,2.21q5.22,0,6.87-2.42c1.11-1.62,1.66-5,1.66-10.07,0-4.5-.55-7.45-1.66-8.87S307.58,112.09,304.1,112.09Z"/><path class="cls-1" d="M370.22,107.69h-4.78q0-5.16-1.72-6.54c-1.14-.93-3.84-1.39-8.08-1.39q-7.56,0-9.75,1.32T343.7,107c0,3.44.58,5.53,1.72,6.28s4.55,1.26,10.22,1.53q10,.43,12.66,2.53t2.7,9.36q0,7.87-3.11,10.18t-13.72,2.31q-9.23,0-12.26-2.33t-3.05-9.38l0-1.9h4.78v1.06c0,3.81.58,6.17,1.75,7.1s4.15,1.39,9,1.39q8.28,0,10.18-1.39t1.91-7.41q0-3.92-1.3-5.2c-.86-.87-2.67-1.38-5.42-1.55l-5-.25-4.75-.25q-10.83-.75-10.84-11.24,0-7.28,3.16-9.71t12.58-2.43q9.56,0,12.46,2.26T370.22,107.69Z"/><path class="cls-1" d="M381.12,117.27h-4.34q0-5.2,2.35-7c1.58-1.19,4.65-1.79,9.23-1.79q7.47,0,10.09,2.2c1.75,1.46,2.63,4.26,2.63,8.38v19.7H396.7l.35-3.21-.1,0q-2.49,3.69-10.15,3.69-11.3,0-11.3-9.09,0-5.4,2.53-7.46c1.68-1.37,4.74-2.06,9.15-2.06q7.88,0,9.43,3.09l.09,0V120c0-3.41-.46-5.63-1.4-6.63s-3-1.52-6.15-1.52q-8.06,0-8.06,4.53C381.09,116.54,381.1,116.84,381.12,117.27Zm7,6.71q-5,0-6.55,1.07t-1.51,4.55c0,2.42.5,4,1.5,4.8s3,1.17,6.09,1.17q9.24,0,9.24-5.62,0-3.54-1.79-4.75T388.15,124Z"/><path class="cls-1" d="M413.54,96.14V101h-4.37v-4.9Zm0,12.77v29.84h-4.37V108.91Z"/><path class="cls-1" d="M425.56,96.14v42.61h-4.37V96.14Z"/><path class="cls-3" d="M445.49,121.21h13.18v4.06H445.39Z"/></svg>