<?xml version="1.0" encoding="utf-8"?>
<!-- Generator: Adobe Illustrator 22.0.1, SVG Export Plug-In . SVG Version: 6.00 Build 0)  -->
<svg version="1.1" id="Défaut" xmlns="http://www.w3.org/2000/svg" xmlns:xlink="http://www.w3.org/1999/xlink" x="0px" y="0px"
	 viewBox="0 0 460.3 152.1" style="enable-background:new 0 0 460.3 152.1;" xml:space="preserve">
<style type="text/css">
	.st0{fill:#FFFFFF;}
	.st1{fill:#E02427;}
	.st2{fill:#7FD311;}
</style>
<path class="st0" d="M151.1,0.5c-40.6,0-81.1,0-121.7,0C19.6,24.7,9.8,48.9,0,73.2c40.9,0,81.8,0,122.8,0c6.9,0,13.2-4.2,15.8-10.6
	c6.8-16.8,13.6-33.6,20.5-50.4C161.3,6.6,157.2,0.5,151.1,0.5z M139.1,22.8c-3.7,9-7.3,17.9-11,26.9c-1.3,3.2-4.4,5.3-7.9,5.3
	c-32.5,0-65,0-97.5,0c5.1-12.7,10.3-25.3,15.4-38c32.3,0,64.7,0,97,0C138.2,16.9,140.3,20,139.1,22.8z"/>
<path class="st0" d="M268.3,56.3c-12.9,0-25.7,0-38.6,0c7.5-18.7,15.1-37.4,22.6-56.1c-5.1-0.1-10.3-0.1-15.4-0.2
	c-7.5,18.8-15.1,37.5-22.6,56.3c-12.4,0-24.8,0-37.2,0c-3,0-5.1-3-3.9-5.8c6.8-16.8,13.6-33.6,20.3-50.4c-5.2,0-10.5,0-15.7,0
	c-8.3,20.5-16.5,41-24.8,61.5c-2.3,5.6,1.9,11.7,7.9,11.7c36.7,0,73.5,0,110.2,0c6.9,0,13.2-4.2,15.8-10.6
	c8.4-20.8,16.8-41.7,25.2-62.5c-5.1,0-10.3,0-15.4,0c-6.8,17-13.7,34-20.5,50.9C274.9,54.2,271.8,56.3,268.3,56.3z"/>
<path class="st0" d="M426,46.7c-0.8,2-1.6,3.9-2.3,5.9c-0.6,1.6-2.2,2.7-4,2.7c-38.7,0-77.4,0-116.1,0c-2.4,6-4.8,12-7.2,18
	c41,0,82,0,122.9,0c7,0,13.2-4.2,15.8-10.7c3.1-7.7,6.2-15.5,9.3-23.2c2.2-5.6-1.9-11.7-7.9-11.7c-34.5,0-69,0-103.4,0
	c-1.5,0-2.6-1.6-1.9-3c0.7-1.6,1.4-3.3,2.1-4.9c0.7-1.6,2.2-2.6,3.9-2.6c38.7,0,77.5,0,116.2,0c2.3-5.7,4.6-11.5,6.9-17.2
	c-40.9,0-81.8,0-122.7,0c-6.9,0-13.1,4.1-15.7,10.5c-3,7.2-5.9,14.3-8.9,21.5c-2.3,5.6,1.8,11.8,7.9,11.8c34.4,0,68.8,0,103.2,0
	C425.5,43.7,426.6,45.3,426,46.7z"/>
<path class="st1" d="M2,121.2h13.2v4.1H1.9L2,121.2z"/>
<path class="st0" d="M35.3,138.8V96.1H55c6.1,0,10.2,1.3,12.4,4c2.2,2.7,3.3,7.8,3.3,15.4c0,9.2-1,15.4-2.9,18.5
	c-1.9,3.1-5.8,4.7-11.5,4.7H35.3z M40.1,134.7H54c5.1,0,8.4-1,9.9-3.1c1.5-2,2.2-6.6,2.2-13.6c0-7.7-0.6-12.6-1.9-14.7
	c-1.3-2.1-4.3-3.1-9.2-3.1H40.1V134.7z"/>
<path class="st0" d="M98,108.9l-8.5,31.6c-1.2,4.5-2.5,7.5-4,9.2c-1.4,1.7-3.5,2.5-6.2,2.5c-0.5,0-1.2-0.1-2.1-0.2v-3.6
	c0.6,0.1,1.1,0.2,1.5,0.2c2.4,0.1,4.1-1.8,5.2-5.7l0.8-2.9c0-0.1,0.1-0.5,0.3-1.1h-1.7l-10.8-29.8h4.7l4.6,13.3l2.3,6.6l1.1,3.3
	l1.2,3.3h0.1l0.8-3.3l0.8-3.3l1.7-6.6l3.4-13.3H98z"/>
<path class="st0" d="M101.7,108.9h4.2l-0.1,4.1l0.1,0.1c1.3-3.1,4.6-4.6,9.9-4.6c4.3,0,7.2,0.7,8.7,2.2c1.5,1.5,2.3,4.4,2.3,8.6
	v19.4h-4.4v-19v-1.1c0-2.6-0.5-4.3-1.5-5.2c-1-0.9-2.9-1.3-5.7-1.3c-6.1,0-9.2,2.9-9.2,8.7v18h-4.4V108.9z"/>
<path class="st0" d="M139.2,117.3h-4.3c0-3.5,0.8-5.8,2.4-7c1.6-1.2,4.6-1.8,9.2-1.8c5,0,8.3,0.7,10.1,2.2c1.7,1.5,2.6,4.3,2.6,8.4
	v19.7h-4.4l0.3-3.2l-0.1,0c-1.7,2.5-5.1,3.7-10.2,3.7c-7.5,0-11.3-3-11.3-9.1c0-3.6,0.8-6.1,2.5-7.5c1.7-1.4,4.7-2.1,9.2-2.1
	c5.2,0,8.4,1,9.4,3.1l0.1,0V120c0-3.4-0.5-5.6-1.4-6.6c-0.9-1-3-1.5-6.2-1.5c-5.4,0-8.1,1.5-8.1,4.5
	C139.2,116.5,139.2,116.8,139.2,117.3z M146.3,124c-3.4,0-5.5,0.4-6.5,1.1c-1,0.7-1.5,2.2-1.5,4.6c0,2.4,0.5,4,1.5,4.8
	c1,0.8,3,1.2,6.1,1.2c6.2,0,9.2-1.9,9.2-5.6c0-2.4-0.6-3.9-1.8-4.7C152,124.4,149.7,124,146.3,124z"/>
<path class="st0" d="M243.2,96.1l-13.4,42.6h-7.3l-9-30.7l-1.1-3.8c-0.1-0.2-0.2-0.8-0.5-1.9l-0.6-1.9h-0.1l-0.5,1.9l-0.6,1.9
	l-1.2,3.9l-9.1,30.6h-7.2l-13.1-42.6h4.9l9.2,30.6l1.2,4.2c0.1,0.3,0.3,1,0.6,2.1l0.6,2.1h0.1l0.6-2.1l0.6-2.1l1.2-4.1l9.1-30.7h7.1
	l9,30.7l1.2,4.1l0.6,2.1l0.6,2.1h0.1l0.6-2.1l0.6-2.1l1.3-4.2l9.4-30.6H243.2z"/>
<path class="st0" d="M251.5,96.1v4.9h-4.4v-4.9H251.5z M251.5,108.9v29.8h-4.4v-29.8H251.5z"/>
<path class="st0" d="M259.2,108.9h4.2l-0.1,4.1l0.1,0.1c1.3-3.1,4.6-4.6,9.9-4.6c4.3,0,7.2,0.7,8.7,2.2c1.5,1.5,2.3,4.4,2.3,8.6
	v19.4h-4.4v-19v-1.1c0-2.6-0.5-4.3-1.5-5.2c-1-0.9-2.9-1.3-5.7-1.3c-6.1,0-9.2,2.9-9.2,8.7v18h-4.4V108.9z"/>
<path class="st0" d="M317.1,108.9v31.8c0,4.3-0.9,7.3-2.8,8.9c-1.9,1.6-5.3,2.4-10.3,2.4c-4.5,0-7.5-0.7-9.1-2.1
	c-1.6-1.4-2.4-3.9-2.4-7.7h4.2c0,2.6,0.5,4.2,1.4,5c0.9,0.8,3,1.2,6.2,1.2c3.3,0,5.6-0.5,6.7-1.5c1.1-1,1.7-3,1.7-5.9v-6l-0.1,0
	c-1.1,2.8-4.4,4.2-9.7,4.2c-4.4,0-7.5-1.1-9.1-3.3c-1.7-2.2-2.5-6.1-2.5-11.9c0-6,0.8-10.1,2.5-12.3c1.7-2.2,4.8-3.3,9.4-3.3
	c4.9,0,8.1,1.5,9.6,4.5l0.1,0l-0.2-4H317.1z M304.1,112.1c-3.4,0-5.7,0.7-6.7,2.2c-1,1.4-1.5,4.6-1.5,9.5c0,4.9,0.5,8.1,1.5,9.6
	c1,1.5,3.2,2.2,6.7,2.2c3.5,0,5.8-0.8,6.9-2.4c1.1-1.6,1.7-5,1.7-10.1c0-4.5-0.6-7.5-1.7-8.9C309.9,112.8,307.6,112.1,304.1,112.1z"
	/>
<path class="st0" d="M370.2,107.7h-4.8c0-3.4-0.6-5.6-1.7-6.5c-1.1-0.9-3.8-1.4-8.1-1.4c-5,0-8.3,0.4-9.7,1.3
	c-1.5,0.9-2.2,2.9-2.2,5.9c0,3.4,0.6,5.5,1.7,6.3c1.1,0.7,4.5,1.3,10.2,1.5c6.6,0.3,10.9,1.1,12.7,2.5c1.8,1.4,2.7,4.5,2.7,9.4
	c0,5.2-1,8.6-3.1,10.2c-2.1,1.5-6.6,2.3-13.7,2.3c-6.1,0-10.2-0.8-12.3-2.3c-2-1.5-3-4.7-3-9.4l0-1.9h4.8v1.1c0,3.8,0.6,6.2,1.7,7.1
	c1.2,0.9,4.2,1.4,9,1.4c5.5,0,8.9-0.5,10.2-1.4c1.3-0.9,1.9-3.4,1.9-7.4c0-2.6-0.4-4.3-1.3-5.2c-0.9-0.9-2.7-1.4-5.4-1.5l-5-0.3
	l-4.7-0.2c-7.2-0.5-10.8-4.2-10.8-11.2c0-4.9,1.1-8.1,3.2-9.7c2.1-1.6,6.3-2.4,12.6-2.4c6.4,0,10.5,0.8,12.5,2.3
	C369.3,99.5,370.2,102.7,370.2,107.7z"/>
<path class="st0" d="M381.1,117.3h-4.3c0-3.5,0.8-5.8,2.4-7c1.6-1.2,4.6-1.8,9.2-1.8c5,0,8.3,0.7,10.1,2.2c1.7,1.5,2.6,4.3,2.6,8.4
	v19.7h-4.4l0.3-3.2l-0.1,0c-1.7,2.5-5,3.7-10.1,3.7c-7.5,0-11.3-3-11.3-9.1c0-3.6,0.8-6.1,2.5-7.5c1.7-1.4,4.7-2.1,9.1-2.1
	c5.2,0,8.4,1,9.4,3.1l0.1,0V120c0-3.4-0.5-5.6-1.4-6.6c-0.9-1-3-1.5-6.2-1.5c-5.4,0-8.1,1.5-8.1,4.5
	C381.1,116.5,381.1,116.8,381.1,117.3z M388.1,124c-3.4,0-5.5,0.4-6.5,1.1c-1,0.7-1.5,2.2-1.5,4.6c0,2.4,0.5,4,1.5,4.8
	c1,0.8,3,1.2,6.1,1.2c6.2,0,9.2-1.9,9.2-5.6c0-2.4-0.6-3.9-1.8-4.7C393.9,124.4,391.6,124,388.1,124z"/>
<path class="st0" d="M413.5,96.1v4.9h-4.4v-4.9H413.5z M413.5,108.9v29.8h-4.4v-29.8H413.5z"/>
<path class="st0" d="M425.6,96.1v42.6h-4.4V96.1H425.6z"/>
<path class="st2" d="M445.5,121.2h13.2v4.1h-13.3L445.5,121.2z"/>
</svg>
