<svg id="Calque_1" data-name="Calque 1" xmlns="http://www.w3.org/2000/svg" viewBox="0 0 83.62 83.68"><defs><style>.cls-1{fill:#fff;}</style></defs><title>Plan de travail 68</title><path class="cls-1" d="M40.34,0c6.49.06,11.49.08,16.49.16a37.57,37.57,0,0,1,11,1.6c6.61,2.14,11,6.6,13.56,13a27,27,0,0,1,1.92,9.2c.16,4.88.23,9.76.26,14.64,0,5.89,0,11.79-.08,17.68a41.18,41.18,0,0,1-1.25,10.48c-2.17,7.93-7.36,12.89-15.06,15.39a28.62,28.62,0,0,1-8.6,1.4q-13.23.15-26.47.17c-2.88,0-5.77-.08-8.65-.26a26.59,26.59,0,0,1-12.62-3.64A21.55,21.55,0,0,1,1.66,67.71,29.43,29.43,0,0,1,.18,59Q0,46,0,33.05c0-3.23.06-6.48.27-9.71a25.85,25.85,0,0,1,3.89-12.8,21.68,21.68,0,0,1,12.35-9A31.28,31.28,0,0,1,24.82.25C30.49.12,36.16.06,40.34,0ZM76.16,42.38h0c0-3.71,0-7.42,0-11.13a60.83,60.83,0,0,0-.88-11A15.44,15.44,0,0,0,70.86,12a13.86,13.86,0,0,0-7.81-3.63,88,88,0,0,0-12.66-.86c-6.29,0-12.58-.06-18.87,0a60.32,60.32,0,0,0-11.45.92A15.43,15.43,0,0,0,12,12.75a13.53,13.53,0,0,0-3.6,7.35,74.67,74.67,0,0,0-.94,12.13q-.11,10.13,0,20.27A52.85,52.85,0,0,0,8.48,64.11a15.31,15.31,0,0,0,4.07,7.49,13.76,13.76,0,0,0,8,3.82A85.53,85.53,0,0,0,33,76.29c6.36,0,12.73,0,19.09,0a59.82,59.82,0,0,0,11.41-.9A15.35,15.35,0,0,0,71.67,71a14.06,14.06,0,0,0,3.68-8,76.84,76.84,0,0,0,.79-10.16C76.21,49.35,76.16,45.87,76.16,42.38Z"/><path class="cls-1" d="M63.1,41.88a21.52,21.52,0,1,1-43,0A21.71,21.71,0,0,1,41.64,20.33,21.43,21.43,0,0,1,63.1,41.88ZM41.6,27.8A14.12,14.12,0,0,0,27.49,41.85c0,8,7,14,14.13,13.94A14.18,14.18,0,0,0,55.68,41.86,14,14,0,0,0,41.6,27.8Z"/><path class="cls-1" d="M69.15,19.38a5.08,5.08,0,1,1-10.15,0,5.08,5.08,0,1,1,10.15,0Z"/></svg>