<svg id="Calque_1" data-name="Calque 1" xmlns="http://www.w3.org/2000/svg" viewBox="0 0 102.02 82.91"><defs><style>.cls-1{fill:#fff;}</style></defs><title>Plan de travail 72</title><path class="cls-1" d="M102,9.81a41.89,41.89,0,0,1-12,3.3A21,21,0,0,0,99.2,1.53,41.84,41.84,0,0,1,85.91,6.61,20.95,20.95,0,0,0,50.24,25.7,59.48,59.48,0,0,1,7.1,3.83a21,21,0,0,0,6.48,27.94A21,21,0,0,1,4.1,29.16,20.94,20.94,0,0,0,20.89,49.94a21,21,0,0,1-9.46.36A21,21,0,0,0,31,64.83,42.08,42.08,0,0,1,0,73.5a59.24,59.24,0,0,0,32.08,9.41c38.86,0,60.82-32.82,59.49-62.26A42.57,42.57,0,0,0,102,9.81Z"/></svg>