<svg xmlns="http://www.w3.org/2000/svg" viewBox="0 0 66.06 139.33"><defs><style>.cls-1{fill:#202020;}.cls-2{fill:none;stroke:#202020;stroke-miterlimit:10;}</style></defs><title>Fichier 1</title><g id="Calque_2" data-name="Calque 2"><g id="Calque_1-2" data-name="Calque 1"><rect class="cls-1" x="6.17" y="104.43" width="53.71" height="5.75"/><rect class="cls-1" x="6.17" y="114.93" width="53.71" height="5.75"/><rect class="cls-1" x="6.17" y="125.44" width="53.71" height="5.75"/><path class="cls-1" d="M33.37,13.51a3.25,3.25,0,1,1-3.25,3.25A3.26,3.26,0,0,1,33.37,13.51Z"/><polygon class="cls-2" points="49.29 0.5 16.76 0.5 0.5 16.76 0.5 138.83 65.56 138.83 65.56 16.76 49.29 0.5"/><path class="cls-2" d="M33.37,10.26a6.51,6.51,0,1,1-6.51,6.51A6.51,6.51,0,0,1,33.37,10.26Z"/><path class="cls-1" d="M49.47,76.12l-3.41-6A.23.23,0,0,0,46,70a.3.3,0,0,0-.42.07l-3.42,6c-.16.17,0,.17,0,.33h.33l2.44-1a13.65,13.65,0,0,1-4.56,8.62A7.42,7.42,0,0,0,35,81V66.2c4.06-.82,8.94-4.23,8.94-8.79a8.93,8.93,0,0,0-5.85-8.62,2.46,2.46,0,0,0,.16-1.14,4.88,4.88,0,0,0-9.76,0,4.73,4.73,0,0,0,3.25,4.56v5.21H26.86v1.63h4.88v6.51a9.13,9.13,0,0,0,0,16.91V87h-.16a12.85,12.85,0,0,1-9.92-11.22l2.45,1h.16l.16-.16v-.32l-3.41-6L21,70.21a.31.31,0,0,0-.43.06l-3.42,6c-.17.16,0,.16,0,.32h.32l2.28-1a13.56,13.56,0,0,0,6.5,10.73l7,4.88h.32L41,86.05a14.41,14.41,0,0,0,6.18-10.41l2.28,1h0C49.63,76.29,49.63,76.29,49.47,76.12Zm-17.74,4.4a7.38,7.38,0,0,1-4.06-6.83h0A7,7,0,0,1,31.73,67Zm5.7-30.09a7.15,7.15,0,0,1,4.88,7c0,3.57-3.9,6.34-7.32,7.15V59.05h4.88V57.43H35v-5A7.15,7.15,0,0,0,37.43,50.43Zm-4.06.49a3.26,3.26,0,1,1,3.25-3.25h0A3.27,3.27,0,0,1,33.37,50.92Zm1.78,35.77H35V82.63h0a6.23,6.23,0,0,1,4.07,2.59A8.8,8.8,0,0,1,35.15,86.69Z"/></g></g></svg>