<svg xmlns="http://www.w3.org/2000/svg" viewBox="0 0 67.89 141.16"><defs><style>.cls-1{fill:#202020;}.cls-2,.cls-3{fill:none;stroke:#202020;stroke-miterlimit:10;}.cls-2{stroke-width:2.83px;}</style></defs><title>Fichier 1</title><g id="Calque_2" data-name="Calque 2"><g id="Calque_1-2" data-name="Calque 1"><rect class="cls-1" x="7.09" y="105.34" width="53.71" height="5.75"/><rect class="cls-1" x="7.09" y="115.85" width="53.71" height="5.75"/><rect class="cls-1" x="7.09" y="126.36" width="53.71" height="5.75"/><path class="cls-1" d="M34.29,14.43A3.25,3.25,0,1,1,31,17.68,3.25,3.25,0,0,1,34.29,14.43Z"/><polygon class="cls-2" points="50.21 1.42 17.68 1.42 1.42 17.68 1.42 139.75 66.47 139.75 66.47 17.68 50.21 1.42"/><path class="cls-3" d="M34.29,11.18a6.51,6.51,0,1,1-6.51,6.5A6.5,6.5,0,0,1,34.29,11.18Z"/><path class="cls-1" d="M50.39,77,47,71,46.91,71a.3.3,0,0,0-.42.06l-3.42,6c-.16.16,0,.16,0,.32h.33l2.43-1A13.59,13.59,0,0,1,41.28,85a7.36,7.36,0,0,0-5.37-3.09V67.11c4.07-.81,9-4.22,9-8.78A8.94,8.94,0,0,0,39,49.71a2.46,2.46,0,0,0,.17-1.14,4.88,4.88,0,0,0-9.76,0,4.73,4.73,0,0,0,3.25,4.56v5.21H27.78V60h4.88v6.5a9.13,9.13,0,0,0,0,16.92v4.54H32.5a12.85,12.85,0,0,1-9.92-11.22l2.45,1h.16l.16-.16v-.32l-3.41-6a.13.13,0,0,0-.07-.06.29.29,0,0,0-.42.06l-3.43,6c-.16.16,0,.16,0,.32h.33l2.27-1A13.6,13.6,0,0,0,27.13,87.3l7,4.88h.33L41.93,87a14.46,14.46,0,0,0,6.18-10.41l2.28,1h0C50.55,77.2,50.55,77.2,50.39,77Zm-17.75,4.4a7.4,7.4,0,0,1-4.05-6.83h0a7,7,0,0,1,4.05-6.67Zm5.71-30.09a7.16,7.16,0,0,1,4.88,7c0,3.57-3.91,6.34-7.32,7.15V60h4.88V58.34H35.91v-5A7.12,7.12,0,0,0,38.35,51.35Zm-4.07.49a3.26,3.26,0,1,1,3.26-3.26h0A3.27,3.27,0,0,1,34.28,51.84ZM36.07,87.6h-.16v-4h0A6.15,6.15,0,0,1,40,86.14,8.7,8.7,0,0,1,36.07,87.6Z"/></g></g></svg>