<?xml version="1.0" encoding="utf-8"?>
<!-- Generator: Adobe Illustrator 22.0.1, SVG Export Plug-In . SVG Version: 6.00 Build 0)  -->
<svg version="1.1" id="Layer_1" xmlns="http://www.w3.org/2000/svg" xmlns:xlink="http://www.w3.org/1999/xlink" x="0px" y="0px"
	 viewBox="0 0 225.4 225.4" style="enable-background:new 0 0 225.4 225.4;" xml:space="preserve">
<style type="text/css">
	.st0{fill:#FFFFFF;}
	.st1{font-family:'EurostileBold';}
	.st2{font-size:34.5583px;}
</style>
<rect y="0" width="225.4" height="225.4"/>
<path class="st0" d="M182.7,17.1c-13.6,0-24.7,11-24.7,24.7c0,13.6,11,24.7,24.7,24.7c13.6,0,24.7-11,24.7-24.7
	C207.4,28.1,196.3,17.1,182.7,17.1z M200,46.7h-12.3V59h-9.9V46.7h-12.3v-9.9h12.3V24.5h9.9v12.3H200V46.7z"/>
<text transform="matrix(1.0004 0 0 1 17.9833 122.1949)"><tspan x="0" y="0" class="st0 st1 st2">The</tspan><tspan x="0" y="41.5" class="st0 st1 st2">Model Yacht</tspan><tspan x="0" y="82.9" class="st0 st1 st2">Club</tspan></text>
<g>
	<rect x="259" y="-136" width="225.4" height="225.4"/>
	<path class="st0" d="M441.7-118.9c-13.6,0-24.7,11-24.7,24.7c0,13.6,11,24.7,24.7,24.7c13.6,0,24.7-11,24.7-24.7
		C466.4-107.9,455.3-118.9,441.7-118.9z M459-89.3h-12.3V-77h-9.9v-12.3h-12.3v-9.9h12.3v-12.3h9.9v12.3H459V-89.3z"/>
	<g>
		<path class="st0" d="M288.2-32.9v19.1h-4.4v-19.1h-6.7v-3.9h17.9v3.9H288.2z"/>
		<path class="st0" d="M301-36.8v9.6l0.1,0c0.7-1.9,2.4-2.9,5-2.9c3.8,0,5.7,1.8,5.7,5.3v11h-3.9v-9.9v-0.5c0-1.9-1-2.8-2.9-2.8
			c-2.6,0-4,1.4-4,4.1v9.2h-3.9v-23H301z"/>
		<path class="st0" d="M325.9-19h3.9v0.6c0,3.1-2.4,4.7-7.1,4.7c-3.2,0-5.3-0.5-6.3-1.6s-1.5-3.4-1.5-6.9c0-3.1,0.5-5.2,1.6-6.3
			c1-1.1,3.1-1.6,6.1-1.6c2.9,0,4.8,0.5,5.8,1.6c1,1.1,1.5,3.1,1.5,6.2v1.2h-10.9c0,0.4,0,0.6,0,0.7c0,1.6,0.2,2.6,0.7,3.2
			c0.5,0.5,1.5,0.8,2.9,0.8c1.4,0,2.3-0.2,2.8-0.5C325.7-17.3,325.9-17.9,325.9-19z M326-23.5l0-0.6c0-1.3-0.2-2.1-0.7-2.5
			c-0.4-0.4-1.4-0.6-2.9-0.6c-1.4,0-2.4,0.2-2.8,0.7c-0.4,0.5-0.6,1.5-0.6,3H326z"/>
		<path class="st0" d="M306,4.6v23h-4.4V15.1c0-1,0-2.1,0.1-3.4l0.1-1.7l0.1-1.7h-0.1l-0.5,1.6l-0.5,1.6c-0.5,1.4-0.8,2.5-1.1,3.2
			l-5.1,13h-4l-5.1-12.9c-0.3-0.7-0.7-1.8-1.1-3.2l-0.5-1.6l-0.5-1.6h-0.1l0.1,1.7l0.1,1.7c0.1,1.3,0.1,2.4,0.1,3.4v12.6H279v-23
			h7.1l4.1,10.7c0.3,0.7,0.7,1.8,1.1,3.2l0.5,1.6l0.5,1.6h0.2l0.5-1.6l0.5-1.6c0.4-1.3,0.8-2.4,1.1-3.2l4.1-10.7H306z"/>
		<path class="st0" d="M317,11.3c3.1,0,5.2,0.5,6.1,1.5c1,1,1.5,3.1,1.5,6.3c0,3.6-0.5,5.9-1.4,7c-0.9,1.1-2.9,1.7-6,1.7
			c-3.3,0-5.4-0.5-6.4-1.6c-1-1-1.5-3.3-1.5-6.8c0-3.4,0.5-5.6,1.4-6.6C311.7,11.9,313.8,11.3,317,11.3z M316.9,14.4
			c-1.6,0-2.6,0.3-3.1,0.9c-0.4,0.6-0.7,1.9-0.7,4.1c0,2.4,0.2,3.9,0.6,4.6c0.4,0.6,1.5,0.9,3.1,0.9c1.6,0,2.6-0.3,3-1
			c0.4-0.6,0.6-2.2,0.6-4.6c0-2.1-0.2-3.4-0.7-3.9C319.5,14.7,318.5,14.4,316.9,14.4z"/>
		<path class="st0" d="M342.1,4.6v23h-3.8l0.1-2.6l-0.1,0c-0.8,1.9-2.4,2.8-4.9,2.8c-2.6,0-4.2-0.6-5.1-1.7s-1.2-3.5-1.2-7.1
			c0-2.9,0.4-4.9,1.3-6c0.9-1.1,2.5-1.7,4.7-1.7c2.6,0,4.3,0.8,4.9,2.5l0.1,0V4.6H342.1z M334.6,14.4c-1.4,0-2.4,0.3-2.8,0.9
			c-0.4,0.6-0.6,1.9-0.6,4c0,2.3,0.2,3.8,0.6,4.5s1.4,1,2.9,1c1.6,0,2.5-0.3,3-1c0.4-0.7,0.7-2.2,0.7-4.6c0-2-0.2-3.3-0.7-3.9
			C337.1,14.7,336.1,14.4,334.6,14.4z"/>
		<path class="st0" d="M356.3,22.5h3.9v0.6c0,3.1-2.4,4.7-7.1,4.7c-3.2,0-5.3-0.5-6.3-1.6s-1.5-3.4-1.5-6.9c0-3.1,0.5-5.2,1.6-6.3
			c1-1.1,3.1-1.6,6.1-1.6c2.9,0,4.8,0.5,5.8,1.6c1,1.1,1.5,3.1,1.5,6.2v1.2h-10.9c0,0.4,0,0.6,0,0.7c0,1.6,0.2,2.6,0.7,3.2
			c0.5,0.5,1.5,0.8,2.9,0.8c1.4,0,2.3-0.2,2.8-0.5C356.1,24.2,356.3,23.5,356.3,22.5z M356.4,17.9l0-0.6c0-1.3-0.2-2.1-0.7-2.5
			c-0.4-0.4-1.4-0.6-2.9-0.6c-1.4,0-2.4,0.2-2.8,0.7c-0.4,0.5-0.6,1.5-0.6,3H356.4z"/>
		<path class="st0" d="M367.3,4.6v23h-3.9v-23H367.3z"/>
		<path class="st0" d="M399,4.6l-8.5,14.2v8.8H386v-8.8l-8.3-14.2h5.1l3.5,6.1c0.2,0.3,0.5,1,1,1.9l0.5,0.9l0.5,0.9h0.1l0.5-0.9
			l0.5-0.9c0.4-0.8,0.7-1.5,1-1.9l3.5-6.1H399z"/>
		<path class="st0" d="M404.8,16.2h-4c0-1.9,0.5-3.2,1.4-3.9s2.7-1,5.4-1c2.9,0,4.9,0.4,5.9,1.2c1,0.8,1.5,2.3,1.5,4.6v10.5h-3.9
			l0.2-2.2l-0.1,0c-0.7,1.6-2.5,2.4-5.1,2.4c-3.9,0-5.9-1.7-5.9-5c0-3.4,2-5,6-5c2.7,0,4.3,0.6,4.9,1.8h0.1v-2.6
			c0-1.3-0.2-2.1-0.7-2.5c-0.4-0.4-1.3-0.6-2.7-0.6C405.8,13.9,404.8,14.7,404.8,16.2z M407.4,20.4c-2.2,0-3.3,0.8-3.3,2.3
			c0,1,0.2,1.7,0.7,2.1s1.4,0.5,2.8,0.5c2.4,0,3.5-0.8,3.5-2.4C411.1,21.3,409.9,20.4,407.4,20.4z"/>
		<path class="st0" d="M429.1,21.5h3.8v0.6l-0.2,2.4c-0.5,2.2-2.8,3.3-6.9,3.3c-3,0-5.1-0.5-6.1-1.6c-1-1.1-1.5-3.3-1.5-6.6
			c0-3.2,0.5-5.4,1.5-6.5c1-1.1,2.9-1.7,5.8-1.7c2.8,0,4.7,0.4,5.7,1.2s1.5,2.4,1.5,4.6h-3.8c0-1.9-1.1-2.8-3.3-2.8
			c-1.5,0-2.5,0.3-2.9,0.9c-0.4,0.6-0.6,2.1-0.6,4.4c0,2.2,0.2,3.7,0.6,4.2s1.5,0.9,3.2,0.9c1.3,0,2.2-0.2,2.6-0.6
			S429.1,22.9,429.1,21.5z"/>
		<path class="st0" d="M439.6,4.6v9.6l0.1,0c0.7-1.9,2.4-2.9,5-2.9c3.8,0,5.7,1.8,5.7,5.3v11h-3.9v-9.9v-0.5c0-1.9-1-2.8-2.9-2.8
			c-2.6,0-4,1.4-4,4.1v9.2h-3.9v-23H439.6z"/>
		<path class="st0" d="M464.6,11.5v2.9h-6.2v8.1c0,1.5,0.6,2.2,1.7,2.2c1.2,0,1.9-0.9,1.9-2.7v-0.6h3.3v0.8c0,0.7,0,1.4-0.1,1.9
			c-0.2,2.5-2,3.7-5.5,3.7c-3.4,0-5.2-1.6-5.2-4.7v-8.7h-2.1v-2.9h2.1V7.9h3.9v3.6H464.6z"/>
		<path class="st0" d="M293.2,60.9h4.4v0.8c0,3.2-0.6,5.3-1.8,6.2c-1.2,0.9-3.8,1.4-7.8,1.4c-4.5,0-7.3-0.7-8.4-2.2
			c-1-1.5-1.6-5.5-1.6-11.9c0-3.8,0.7-6.3,2.1-7.5s4.4-1.8,8.9-1.8c3.3,0,5.5,0.5,6.6,1.5c1.1,1,1.7,2.9,1.7,5.9l0,0.5H293v-0.6
			c0-1.5-0.3-2.5-0.9-2.9s-1.9-0.6-3.9-0.6c-2.7,0-4.3,0.3-4.9,1s-0.8,2.6-0.8,5.9c0,4.4,0.2,7,0.7,7.8c0.5,0.8,2.1,1.2,4.8,1.2
			c2.2,0,3.6-0.2,4.2-0.7c0.6-0.4,1-1.4,1-3L293.2,60.9z"/>
		<path class="st0" d="M304.1,46.1v23h-3.9v-23H304.1z"/>
		<path class="st0" d="M322.3,53v16.1h-3.9l0.2-2.8l-0.1,0c-0.8,2-2.5,3-5.2,3c-3.7,0-5.5-1.8-5.5-5.5V53h3.9v9.9
			c0,1.4,0.2,2.3,0.6,2.7c0.4,0.4,1.2,0.7,2.4,0.7c2.5,0,3.7-1.5,3.7-4.5V53H322.3z"/>
		<path class="st0" d="M326.2,69.1v-23h3.9v9.2l0.1,0c0.7-1.7,2.3-2.5,5-2.5c2.3,0,3.9,0.6,4.8,1.7c0.9,1.1,1.3,3.2,1.3,6.3
			c0,3.3-0.4,5.6-1.3,6.8c-0.9,1.2-2.5,1.8-5,1.8c-2.5,0-4.2-0.9-4.9-2.7h-0.1l0.2,2.5H326.2z M333.9,55.9c-2.5,0-3.8,1.6-3.8,4.7
			c0,2.4,0.2,4,0.6,4.7c0.4,0.7,1.4,1,2.9,1c1.6,0,2.6-0.3,3-1c0.4-0.6,0.7-2.1,0.7-4.4c0-2.1-0.2-3.5-0.7-4.1
			C336.2,56.2,335.3,55.9,333.9,55.9z"/>
	</g>
</g>
</svg>
