<svg id="Calque_1" data-name="Calque 1" xmlns="http://www.w3.org/2000/svg" viewBox="0 0 226.43 226.43"><defs><style>.cls-1{fill:#202020;stroke:#fff;stroke-miterlimit:10;}.cls-2{fill:#fff;}.cls-3{fill:none;}</style></defs><title>Plan de travail 14</title><rect class="cls-1" x="0.5" y="0.5" width="225.43" height="225.43"/><polygon class="cls-2" points="188.12 24.97 178.25 24.97 178.25 37.31 165.92 37.31 165.92 47.18 178.25 47.18 178.25 59.52 188.12 59.52 188.12 47.18 200.46 47.18 200.46 37.31 188.12 37.31 188.12 24.97"/><path class="cls-2" d="M.5.5V225.93H225.93V.5ZM58,108q1.56-1.62,6.06-1.62,4.32,0,5.79,1.58t1.47,6.2v1.18H60.4c0,.36,0,.6,0,.71a4.84,4.84,0,0,0,.74,3.17A4,4,0,0,0,64,120a5.37,5.37,0,0,0,2.77-.46,2.4,2.4,0,0,0,.64-2h3.88v.63q0,4.73-7.09,4.72c-3.21,0-5.31-.54-6.3-1.64s-1.48-3.4-1.48-6.93Q56.45,109.6,58,108ZM18.67,99.66H36.58v3.92H29.69V122.7H25.32V103.58H18.67Zm20.46,98.55q0,4.81-1.76,6.22t-7.76,1.41q-6.83,0-8.39-2.23T19.65,191.7q0-5.7,2.12-7.5t8.9-1.8q4.94,0,6.58,1.48c1.11,1,1.66,2.94,1.66,5.86l0,.52H34.54v-.59c0-1.5-.29-2.47-.86-2.89s-1.86-.63-3.89-.63c-2.71,0-4.34.33-4.88,1s-.82,2.63-.82,5.91q0,6.62.73,7.83c.49.81,2.08,1.21,4.75,1.21,2.18,0,3.58-.22,4.23-.67s1-1.44,1-3l0-1h4.39Zm6.5,7.43H41.76v-23h3.87Zm1.82-41.47H43.08V151.61c0-1,0-2.14.08-3.41l.09-1.72.08-1.7H43.2l-.53,1.6-.5,1.6c-.48,1.44-.84,2.51-1.1,3.19l-5.06,13H32l-5.11-12.9c-.29-.71-.66-1.77-1.12-3.19l-.52-1.6-.52-1.58h-.14l.08,1.67.09,1.68c.07,1.31.1,2.43.1,3.36v12.56H20.51v-23h7.12l4.12,10.67c.28.74.65,1.8,1.12,3.19l.5,1.6.53,1.59h.15l.49-1.59L35,155c.42-1.34.78-2.39,1.08-3.17l4.05-10.7h7.28Zm-1-54.74c-2.64,0-4,1.37-4,4.1v9.17H38.67v-23h3.87v9.57l.08,0c.72-1.92,2.38-2.87,5-2.87q5.65,0,5.65,5.35v11H49.38V112.27C49.38,110.38,48.41,109.43,46.49,109.43Zm17.27,96.21H59.89l.22-2.77-.07,0q-1.12,3-5.2,3-5.48,0-5.48-5.48V189.5h3.86v9.91a4.34,4.34,0,0,0,.58,2.71,3.19,3.19,0,0,0,2.38.65q3.7,0,3.71-4.46V189.5h3.87Zm.88-43q-1.43,1.66-6,1.67c-3.3,0-5.43-.52-6.41-1.55s-1.46-3.31-1.46-6.84q0-5.07,1.44-6.59c1-1,3-1.52,6.24-1.52s5.16.5,6.13,1.49,1.45,3.1,1.45,6.3Q66.05,161,64.64,162.68Zm16.78,41.38q-1.31,1.75-5,1.76t-5-2.73h-.08l.17,2.55H67.67v-23h3.87v9.22l.08,0q1-2.55,5-2.55,3.48,0,4.77,1.7t1.29,6.28C82.73,200.62,82.3,202.88,81.42,204.06Zm2.22-39.89H79.88l.13-2.6-.06,0q-1.14,2.82-4.93,2.82t-5.08-1.75c-.82-1.16-1.24-3.53-1.24-7.09q0-4.32,1.34-6t4.74-1.68c2.63,0,4.28.83,4.93,2.5l.07,0v-9.2h3.86Zm18.08-7.38H90.8c0,.36,0,.6,0,.71a4.85,4.85,0,0,0,.73,3.17,4,4,0,0,0,2.93.8A5.34,5.34,0,0,0,97.2,161c.43-.31.64-1,.64-2h3.88v.63q0,4.73-7.09,4.72-4.8,0-6.29-1.64t-1.49-6.93q0-4.71,1.55-6.33t6.06-1.62q4.32,0,5.79,1.58t1.47,6.2Zm7.09,7.38H105v-23h3.86Zm23.11-8.8v8.8h-4.37v-8.8l-8.31-14.24h5.07l3.48,6.08c.19.33.51,1,1,1.87l.48.93.48.93h.12l.48-.93.49-.93c.42-.83.75-1.46,1-1.87l3.51-6.08h5.13Zm24.55,8.8H152.6l.19-2.22h-.1c-.75,1.61-2.46,2.41-5.15,2.41q-5.86,0-5.86-5t6-5q4,0,4.86,1.83h.07v-2.61a3.48,3.48,0,0,0-.66-2.51,4.16,4.16,0,0,0-2.7-.61c-2,0-3,.75-3,2.26h-3.95c0-1.94.45-3.23,1.35-3.88s2.68-1,5.35-1c2.9,0,4.87.4,5.89,1.2s1.54,2.32,1.54,4.57Zm18-5.61-.23,2.45q-.71,3.35-6.92,3.34-4.56,0-6.06-1.64c-1-1.1-1.51-3.31-1.51-6.63s.51-5.42,1.51-6.54,3-1.69,5.84-1.69,4.68.41,5.67,1.22,1.49,2.37,1.49,4.65h-3.84q0-2.82-3.25-2.82c-1.55,0-2.51.3-2.91.9s-.59,2.06-.59,4.38.22,3.67.65,4.25,1.49.87,3.18.87a3.71,3.71,0,0,0,2.56-.6,4.23,4.23,0,0,0,.57-2.69h3.84Zm17.41,5.61H188V153.74c0-1.89-1-2.84-2.88-2.84-2.64,0-3.95,1.37-3.95,4.1v9.17h-3.87v-23h3.87v9.57l.08,0c.72-1.92,2.37-2.87,5-2.87q5.66,0,5.66,5.35Zm14.87-5.4c0,.74,0,1.37-.07,1.9-.21,2.47-2.05,3.7-5.5,3.7s-5.17-1.58-5.17-4.74V151h-2.09V148H196v-3.61h3.87V148h6.21V151h-6.21v8.1c0,1.5.57,2.24,1.7,2.24s1.88-.9,1.88-2.71V158h3.29ZM183.19,66.92a24.68,24.68,0,1,1,24.67-24.68A24.68,24.68,0,0,1,183.19,66.92Z"/><rect class="cls-3" x="0.5" y="0.5" width="225.43" height="225.43"/><rect class="cls-3" x="0.5" y="0.5" width="225.43" height="225.43"/><path class="cls-2" d="M67.45,112.32a3.37,3.37,0,0,0-.66-2.5,4.9,4.9,0,0,0-2.9-.57,4,4,0,0,0-2.81.69c-.43.46-.65,1.47-.65,3h7Z"/><path class="cls-2" d="M76.06,150.9c-1.44,0-2.37.31-2.8.92s-.64,1.93-.64,4c0,2.34.21,3.85.64,4.52s1.38,1,2.87,1,2.55-.33,3-1,.65-2.2.65-4.59q0-3-.72-3.9c-.48-.62-1.47-.93-3-.93"/><path class="cls-2" d="M75.35,192.36c-2.51,0-3.76,1.55-3.76,4.67,0,2.44.21,4,.64,4.7s1.4,1,2.9,1,2.59-.32,3-1,.65-2.09.65-4.36c0-2.11-.21-3.49-.65-4.13s-1.37-1-2.81-1"/><path class="cls-2" d="M148.87,156.94c-2.18,0-3.27.76-3.27,2.26,0,1.05.22,1.74.67,2.06a5.39,5.39,0,0,0,2.84.49c2.35,0,3.52-.79,3.52-2.38s-1.25-2.43-3.76-2.43"/><path class="cls-2" d="M58.44,150.9c-1.61,0-2.63.29-3.07.87s-.66,1.93-.66,4.06c0,2.43.21,3.95.62,4.55s1.46.92,3.13.92,2.62-.32,3-1,.64-2.19.64-4.63c0-2.06-.22-3.37-.66-4s-1.45-.86-3-.86"/><path class="cls-2" d="M97.19,151.29a4.88,4.88,0,0,0-2.9-.57,4,4,0,0,0-2.81.69c-.43.46-.65,1.47-.65,3h7v-.64a3.37,3.37,0,0,0-.67-2.5"/></svg>